<svg xmlns="http://www.w3.org/2000/svg" viewBox="0 0 240 280" role="img" aria-label="Mingjian the lobster">
  <title>Mingjian — the lobster</title>
  <ellipse cx="120" cy="262" rx="58" ry="6" fill="#000" opacity="0.12"/>
  <path d="M 104 60 C 92 44 78 30 64 14" stroke="#9A3322" stroke-width="3.2" fill="none" stroke-linecap="round"/>
  <path d="M 136 60 C 148 44 162 30 176 14" stroke="#9A3322" stroke-width="3.2" fill="none" stroke-linecap="round"/>
  <circle cx="64" cy="14" r="3.4" fill="#9A3322"/>
  <circle cx="176" cy="14" r="3.4" fill="#9A3322"/>
  <ellipse cx="120" cy="162" rx="50" ry="72" fill="#9A3322"/>
  <ellipse cx="120" cy="160" rx="42" ry="62" fill="#C8442A"/>
  <path d="M 82 130 C 100 126 140 126 158 130" stroke="#5D1F1F" stroke-width="1.6" fill="none" opacity="0.55"/>
  <path d="M 78 160 C 100 156 140 156 162 160" stroke="#5D1F1F" stroke-width="1.6" fill="none" opacity="0.55"/>
  <path d="M 82 190 C 100 186 140 186 158 190" stroke="#5D1F1F" stroke-width="1.6" fill="none" opacity="0.55"/>
  <ellipse cx="120" cy="88" rx="42" ry="33" fill="#9A3322"/>
  <ellipse cx="120" cy="86" rx="35" ry="26" fill="#C8442A"/>
  <circle cx="105" cy="82" r="6.5" fill="#F5F1E8"/>
  <circle cx="135" cy="82" r="6.5" fill="#F5F1E8"/>
  <circle cx="106" cy="84" r="3.2" fill="#2a241d"/>
  <circle cx="136" cy="84" r="3.2" fill="#2a241d"/>
  <circle cx="107" cy="83" r="1.1" fill="#F5F1E8"/>
  <circle cx="137" cy="83" r="1.1" fill="#F5F1E8"/>
  <path d="M 110 100 C 116 106 124 106 130 100" stroke="#2a241d" stroke-width="1.8" fill="none" stroke-linecap="round"/>
  <g class="claw claw--left">
    <path d="M 80 132 C 50 124 28 134 18 146 C 10 156 14 168 26 174 C 38 178 52 174 64 168 C 74 162 82 154 84 144 Z" fill="#9A3322"/>
    <path d="M 80 134 C 54 128 36 138 28 150 C 24 158 30 166 40 168 C 52 168 64 162 72 154" fill="#C8442A"/>
    <circle cx="30" cy="156" r="1.8" fill="#5D1F1F"/>
  </g>
  <g class="claw claw--right">
    <path d="M 160 132 C 190 124 212 134 222 146 C 230 156 226 168 214 174 C 202 178 188 174 176 168 C 166 162 158 154 156 144 Z" fill="#9A3322"/>
    <path d="M 160 134 C 186 128 204 138 212 150 C 216 158 210 166 200 168 C 188 168 176 162 168 154" fill="#C8442A"/>
    <circle cx="210" cy="156" r="1.8" fill="#5D1F1F"/>
  </g>
  <path d="M 82 196 L 70 220 L 76 226" stroke="#9A3322" stroke-width="3.2" fill="none" stroke-linecap="round"/>
  <path d="M 94 208 L 88 230 L 94 236" stroke="#9A3322" stroke-width="3.2" fill="none" stroke-linecap="round"/>
  <path d="M 146 208 L 152 230 L 146 236" stroke="#9A3322" stroke-width="3.2" fill="none" stroke-linecap="round"/>
  <path d="M 158 196 L 170 220 L 164 226" stroke="#9A3322" stroke-width="3.2" fill="none" stroke-linecap="round"/>
</svg>
